<mxfile host="65bd71144e">
    <diagram id="k9qaPLQiYxVSCkh1-QgN" name="Page-1">
        <mxGraphModel dx="1134" dy="493" grid="1" gridSize="10" guides="1" tooltips="1" connect="1" arrows="1" fold="1" page="1" pageScale="1" pageWidth="850" pageHeight="1100" math="0" shadow="0">
            <root>
                <mxCell id="0"/>
                <mxCell id="1" parent="0"/>
                <mxCell id="2" value="Baza danych&lt;br&gt;PostgreSQL" style="shape=datastore;whiteSpace=wrap;html=1;verticalAlign=middle;" vertex="1" parent="1">
                    <mxGeometry x="160" y="450" width="100" height="100" as="geometry"/>
                </mxCell>
                <mxCell id="3" value="Strona używtkownika" style="verticalAlign=top;align=left;spacingTop=8;spacingLeft=2;spacingRight=12;shape=cube;size=10;direction=south;fontStyle=4;html=1;" vertex="1" parent="1">
                    <mxGeometry x="130" y="10" width="210" height="140" as="geometry"/>
                </mxCell>
                <mxCell id="4" value="Przeglądarka" style="shape=module;align=left;spacingLeft=20;align=center;verticalAlign=top;" vertex="1" parent="1">
                    <mxGeometry x="165" y="55" width="140" height="75" as="geometry"/>
                </mxCell>
                <mxCell id="5" value="Reverse Proxy" style="verticalAlign=top;align=left;spacingTop=8;spacingLeft=2;spacingRight=12;shape=cube;size=10;direction=south;fontStyle=4;html=1;" vertex="1" parent="1">
                    <mxGeometry x="120" y="220" width="210" height="140" as="geometry"/>
                </mxCell>
                <mxCell id="6" value="Server NGINX" style="shape=module;align=left;spacingLeft=20;align=center;verticalAlign=top;" vertex="1" parent="1">
                    <mxGeometry x="140" y="257.5" width="140" height="75" as="geometry"/>
                </mxCell>
                <mxCell id="18" value="" style="endArrow=none;html=1;exitX=0;exitY=0;exitDx=140;exitDy=110;exitPerimeter=0;entryX=0;entryY=0;entryDx=0;entryDy=100;entryPerimeter=0;" edge="1" parent="1" source="3" target="5">
                    <mxGeometry width="50" height="50" relative="1" as="geometry">
                        <mxPoint x="260" y="220" as="sourcePoint"/>
                        <mxPoint x="310" y="170" as="targetPoint"/>
                    </mxGeometry>
                </mxCell>
                <mxCell id="20" value="&lt;font style=&quot;font-size: 13px&quot;&gt;HTTP&lt;/font&gt;" style="edgeLabel;html=1;align=center;verticalAlign=middle;resizable=0;points=[];" vertex="1" connectable="0" parent="18">
                    <mxGeometry x="-0.2833" relative="1" as="geometry">
                        <mxPoint x="-5" y="5" as="offset"/>
                    </mxGeometry>
                </mxCell>
                <mxCell id="19" value="" style="endArrow=none;html=1;exitX=0;exitY=0;exitDx=65;exitDy=0;exitPerimeter=0;entryX=0;entryY=0;entryDx=75;entryDy=210;entryPerimeter=0;" edge="1" parent="1" source="5" target="21">
                    <mxGeometry width="50" height="50" relative="1" as="geometry">
                        <mxPoint x="570" y="210" as="sourcePoint"/>
                        <mxPoint x="620" y="190" as="targetPoint"/>
                    </mxGeometry>
                </mxCell>
                <mxCell id="21" value="Aplikacja frontendowa" style="verticalAlign=top;align=left;spacingTop=8;spacingLeft=2;spacingRight=12;shape=cube;size=10;direction=south;fontStyle=4;html=1;" vertex="1" parent="1">
                    <mxGeometry x="390" y="210" width="210" height="140" as="geometry"/>
                </mxCell>
                <mxCell id="22" value="Aplikacja ReactJS" style="shape=module;align=left;spacingLeft=20;align=center;verticalAlign=top;" vertex="1" parent="1">
                    <mxGeometry x="410" y="252.5" width="140" height="75" as="geometry"/>
                </mxCell>
                <mxCell id="23" value="&lt;font style=&quot;font-size: 14px&quot;&gt;Serwer Backendowy&lt;/font&gt;" style="verticalAlign=top;align=left;spacingTop=8;spacingLeft=2;spacingRight=12;shape=cube;size=10;direction=south;fontStyle=4;html=1;fontSize=18;" vertex="1" parent="1">
                    <mxGeometry x="390" y="440" width="200" height="130" as="geometry"/>
                </mxCell>
                <mxCell id="24" value="WebAPI .NET" style="shape=module;align=left;spacingLeft=20;align=center;verticalAlign=top;fontSize=13;" vertex="1" parent="1">
                    <mxGeometry x="410" y="490" width="140" height="60" as="geometry"/>
                </mxCell>
                <mxCell id="25" value="" style="endArrow=none;html=1;fontSize=13;exitX=0;exitY=0;exitDx=0;exitDy=95;exitPerimeter=0;" edge="1" parent="1" source="23" target="21">
                    <mxGeometry width="50" height="50" relative="1" as="geometry">
                        <mxPoint x="620" y="370" as="sourcePoint"/>
                        <mxPoint x="670" y="320" as="targetPoint"/>
                    </mxGeometry>
                </mxCell>
                <mxCell id="28" value="&lt;font style=&quot;font-size: 16px&quot;&gt;HTTP&lt;/font&gt;" style="edgeLabel;html=1;align=center;verticalAlign=middle;resizable=0;points=[];fontSize=13;" vertex="1" connectable="0" parent="25">
                    <mxGeometry x="0.5556" y="-1" relative="1" as="geometry">
                        <mxPoint x="-1" y="20" as="offset"/>
                    </mxGeometry>
                </mxCell>
                <mxCell id="27" value="" style="endArrow=none;html=1;fontSize=13;entryX=0;entryY=0;entryDx=70;entryDy=200;entryPerimeter=0;exitX=1.01;exitY=0.6;exitDx=0;exitDy=0;exitPerimeter=0;" edge="1" parent="1" source="2" target="23">
                    <mxGeometry width="50" height="50" relative="1" as="geometry">
                        <mxPoint x="450" y="520" as="sourcePoint"/>
                        <mxPoint x="500" y="470" as="targetPoint"/>
                    </mxGeometry>
                </mxCell>
                <mxCell id="29" value="&lt;font style=&quot;font-size: 15px&quot;&gt;NPGSQL&lt;/font&gt;" style="edgeLabel;html=1;align=center;verticalAlign=middle;resizable=0;points=[];fontSize=13;" vertex="1" connectable="0" parent="27">
                    <mxGeometry x="-0.3798" y="-1" relative="1" as="geometry">
                        <mxPoint x="29" y="-21" as="offset"/>
                    </mxGeometry>
                </mxCell>
            </root>
        </mxGraphModel>
    </diagram>
</mxfile>